<svg width="262" height="537" viewBox="0 0 262 537" fill="none" xmlns="http://www.w3.org/2000/svg">
<path fill-rule="evenodd" clip-rule="evenodd" d="M25.485 1H236.515C249.982 1 261 11.4855 261 24.302V512.698C261 525.514 249.982 536 236.515 536H25.485C12.0182 536 1 525.514 1 512.698V24.302C1 11.4859 12.0179 1 25.485 1ZM31.1886 7.68747H230.812C243.551 7.68747 253.973 17.6065 253.973 29.7297V507.27C253.973 519.394 243.55 529.312 230.812 529.312H31.1886C18.4496 529.312 8.02732 519.393 8.02732 507.27V29.7297C8.02732 17.6062 18.4499 7.68747 31.1886 7.68747Z" fill="#2E2E2D" stroke="#2E2E2D" stroke-width="0.756042" stroke-miterlimit="22.9256"/>
</svg>
